<svg xmlns="http://www.w3.org/2000/svg" xmlns:xlink="http://www.w3.org/1999/xlink" width="467.8000122070312" height="126.43246067825767" viewBox="0 0 370 100.00001973119276" class="css-1j8o68f">
  <defs id="SvgjsDefs2390"/>
  <g id="SvgjsG2391" featurekey="symbolFeature-0" transform="matrix(1.7241379310344829,0,0,1.7241379310344829,-5.172413793103448,-5.172413793103448)" fill="rgb(17, 17, 17)">
    <title xmlns="http://www.w3.org/2000/svg">15 Translate Many Languanges</title>
    <g xmlns="http://www.w3.org/2000/svg" data-name="15 Translate Many Languanges">
      <path d="M7,11A4,4,0,1,0,3,7,4,4,0,0,0,7,11ZM7,5A2,2,0,1,1,5,7,2,2,0,0,1,7,5Z"/>
      <path d="M57,11a4,4,0,1,0-4-4A4,4,0,0,0,57,11Zm0-6a2,2,0,1,1-2,2A2,2,0,0,1,57,5Z"/>
      <path d="M27,12h6.689A10.366,10.366,0,0,1,32.1,14.932a12.377,12.377,0,0,1-1.272-1.488,1,1,0,0,0-1.663,1.111,13.793,13.793,0,0,0,1.541,1.817,9.236,9.236,0,0,1-3.025,1.68,1,1,0,1,0,.632,1.9,11.2,11.2,0,0,0,3.892-2.215A18.3,18.3,0,0,0,35.553,19.9a1,1,0,1,0,.894-1.79A16.156,16.156,0,0,1,33.6,16.276,12.536,12.536,0,0,0,35.786,12H37a1,1,0,0,0,0-2H33V9a1,1,0,0,0-2,0v1H27a1,1,0,0,0,0,2Z"/>
      <path d="M14.9,43.553a1.042,1.042,0,0,0-1.79,0l-5,10a1,1,0,1,0,1.79.894L14,46.236,15.882,50H14a1,1,0,0,0,0,2h2.882l1.223,2.447a1,1,0,0,0,1.79-.894Z"/>
      <path d="M55.5,40.476a10.859,10.859,0,0,0-1.709-.8l2.762-1.847a1,1,0,0,0-1.112-1.662l-2.167,1.449a22.027,22.027,0,0,0-10.341-24.7,11,11,0,0,0-21.824-.5L17.1,12.005A1,1,0,1,0,16.9,14l2.144.222A22,22,0,0,0,10,32a21.766,21.766,0,0,0,1.284,7.34A10.762,10.762,0,0,0,8.5,40.474a11,11,0,0,0,11,19.052A10.877,10.877,0,0,0,24.317,53.8l1.853,2.763a1,1,0,0,0,1.66-1.115l-1.456-2.172a22.148,22.148,0,0,0,12.973-.55A10.985,10.985,0,0,0,49.981,61,11,11,0,0,0,55.5,40.476ZM32,5a8.988,8.988,0,0,1,8.992,8.58c.009.141.008.28.008.42a9,9,0,0,1-18,0c0-.14,0-.279.009-.434A8.984,8.984,0,0,1,32,5ZM18.5,57.794a9,9,0,1,1-9-15.59,8.822,8.822,0,0,1,3.254-1.124,9.177,9.177,0,0,1,1.254-.086,9,9,0,0,1,8.9,10.246v0A8.928,8.928,0,0,1,18.5,57.794ZM24.972,50.7A11,11,0,0,0,13.293,39.018,19.729,19.729,0,0,1,12,32a20.007,20.007,0,0,1,9.076-16.751,10.995,10.995,0,0,0,21.848,0A20.007,20.007,0,0,1,52,32a19.729,19.729,0,0,1-1.293,7.018A11,11,0,0,0,39.028,50.7,20.129,20.129,0,0,1,24.972,50.7Zm32.822,3.8a9,9,0,1,1-7.8-13.506,9.026,9.026,0,0,1,1.255.087A8.8,8.8,0,0,1,54.5,42.206,9.01,9.01,0,0,1,57.794,54.5Z"/>
      <path d="M32,30a5,5,0,1,0,5,5A5.006,5.006,0,0,0,32,30Zm0,8a3,3,0,1,1,3-3A3,3,0,0,1,32,38Z"/>
      <path d="M54,54H49a2,2,0,0,1,0-4h4a1,1,0,0,0,0-2H51a1,1,0,1,1,.9-1.447,1,1,0,0,0,1.789-.9,3,3,0,0,0-5.475,2.422A4,4,0,0,0,49,56h5a1,1,0,0,0,0-2Z"/>
    </g>
  </g>
  <g id="SvgjsG2392" featurekey="nameFeature-0" transform="matrix(2.5933613652945917,0,0,2.5933613652945917,120.62240930291324,-16.28216769648998)" fill="rgb(17, 17, 17)">
    <path d="M8.4 24.52 l0 7.48 c0 1.6 0 4.2 0.12 5.36 c0.04 0.68 0.16 1.24 1 1.24 l1.36 0 c0.36 0 0.44 0.12 0.44 0.36 l0 0.76 c0 0.24 -0.08 0.4 -0.24 0.4 c-0.28 0 -2.04 -0.12 -5.2 -0.12 c-3.36 0 -4.96 0.12 -5.32 0.12 c-0.2 0 -0.28 -0.16 -0.28 -0.48 l0 -0.68 c0 -0.28 0.08 -0.36 0.52 -0.36 l1.2 0 c0.44 0 1.08 -0.28 1.08 -1.72 l0 -12.72 c0 -2.84 0 -6.08 -0.08 -7.12 c-0.08 -1.36 -0.92 -1.92 -2.2 -2.32 l-0.72 -0.24 c-0.28 -0.12 -0.32 -0.24 -0.32 -0.44 l0 -0.6 c0 -0.12 0.08 -0.28 0.36 -0.32 c1.8 -0.36 5.96 -1.72 7.12 -2.32 c0.44 -0.2 0.68 -0.28 0.88 -0.28 c0.24 0 0.4 0.2 0.36 0.72 c-0.04 2.2 -0.08 10.52 -0.08 13.28 z M21.88 40.56 c-2.92 0 -4.92 -0.6 -6.96 -2.92 c-1.52 -1.68 -2.12 -3.8 -2.12 -6.32 c0 -1.8 1 -4.76 3.44 -6.64 c2.04 -1.6 4.08 -2.04 5.96 -2.04 c2.76 0 4.64 0.84 6.44 2.52 c1.96 1.76 2.76 3.92 2.76 6.36 c0 2.32 -1 4.56 -2.56 6.24 c-1.92 2 -4.24 2.8 -6.96 2.8 z M22.119999999999997 38.88 c2.2 0 3.2 -3.24 3.2 -7.64 c0 -4.64 -1.6 -6.92 -3.36 -6.92 c-1 0 -1.64 0.28 -2.16 1.08 c-0.8 1.24 -1.32 2.96 -1.32 6.2 c0 2.32 0.2 3.84 1 5.56 c0.52 1.08 1.16 1.72 2.64 1.72 z M42.72 22.64 c5.24 0 6.4 2.64 6.4 3.88 c0 1.12 -0.8 1.88 -2.08 1.88 c-1.68 0 -2.56 -1.12 -2.88 -2.12 c-0.48 -1.44 -1.24 -1.92 -2.36 -1.92 c-1.08 0 -2.64 1.56 -2.64 4.08 s-0.08 4.32 1.28 6.8 c1 1.8 2.48 2.32 4.28 2.32 c1.84 0 2.72 -0.36 4 -1.28 c0.2 -0.12 0.32 -0.2 0.44 -0.04 l0.56 0.56 c0.12 0.16 0.08 0.32 -0.04 0.52 c-0.76 1.32 -3.88 3.24 -7.56 3.24 c-3 0 -5 -0.84 -6.28 -2.44 c-1.56 -1.92 -2.04 -3.48 -2.04 -5.52 c0 -2.72 0.88 -5.64 3 -7.6 c1.8 -1.64 3.76 -2.36 5.92 -2.36 z M60.2 29.36 l0 -2.12 c0 -0.8 -0.08 -1.72 -0.6 -2.2 c-0.4 -0.36 -1.04 -0.48 -1.68 -0.48 c-0.72 0 -1.4 0.16 -2.12 0.64 c-0.6 0.4 -0.12 1.08 -0.12 2.36 c0 1.36 -1 2.28 -2.6 2.28 c-0.92 0 -1.72 -0.56 -1.72 -1.44 s0.28 -2.08 1.12 -2.8 c1.68 -1.52 4.44 -2.96 7.68 -2.96 c2.56 0 3.24 0.4 4.08 1.16 c0.88 0.8 1.12 1.96 1.12 3.4 l0.08 7.96 c0.04 2.08 0.16 2.72 0.92 2.72 c0.56 0 1 -0.44 1.16 -0.72 c0.16 -0.24 0.28 -0.28 0.4 -0.2 l0.56 0.32 c0.16 0.08 0.28 0.2 0.12 0.56 c-0.36 0.84 -1.56 2.72 -4.04 2.72 c-1.56 0 -3.04 -0.56 -3.8 -2.44 l-0.2 0 c-1 0.92 -1.84 1.48 -3.44 2.08 c-0.8 0.28 -1.72 0.36 -2.88 0.36 c-1.4 0 -2.64 -1.52 -2.64 -3.68 c0 -1.76 0.84 -3.6 3.44 -4.88 c3.12 -1.48 4.12 -1.92 5.16 -2.64 z M60.24000000000001 36.64 l0 -5.68 c-1.96 1.12 -3.6 1.72 -3.6 4.48 c0 1.84 0.84 2.6 1.72 2.64 c1.08 -0.08 1.88 -1.08 1.88 -1.44 z M76.64 31 l0 3.16 c0 3.28 1.24 4 2.2 4 c0.84 0 1.44 -0.12 2.08 -0.48 c0.12 -0.08 0.24 -0.08 0.36 0.16 l0.28 0.6 c0.12 0.2 0 0.4 -0.16 0.52 c-0.68 0.48 -2.48 1.6 -5.6 1.6 c-2.72 0 -4.44 -1.88 -4.44 -3.72 c0 -1.4 0.08 -4.44 0.08 -5.96 l0.04 -5.28 l-2.2 0 c-0.36 0 -0.64 -0.16 -0.64 -0.56 s0.24 -0.68 0.88 -1 c1.32 -0.6 4.68 -3.6 6.16 -5.28 c0.28 -0.32 0.56 -0.4 0.76 -0.4 c0.36 0 0.52 0.28 0.52 0.6 l-0.16 4.24 l5.08 0 c0.24 0 0.36 0.2 0.28 0.36 l-0.4 1.72 c-0.04 0.16 -0.12 0.32 -0.36 0.32 l-4.68 0 c-0.08 1.64 -0.08 3.56 -0.08 5.4 z M95.04 24.240000000000002 l0.56 2.96 c0.04 0.2 0 0.28 -0.16 0.36 l-0.72 0.32 c-0.12 0.08 -0.24 0.04 -0.4 -0.12 l-2.24 -2.4 c-0.52 -0.52 -1.28 -1.16 -2.48 -1.16 s-2.36 0.8 -2.36 2.16 c0.08 1.4 0.56 1.8 3.52 2.6 c1.96 0.52 2.92 0.8 4.12 2.08 c1.04 1.04 1.28 2 1.28 3.4 c0 3.56 -2.8 6.12 -7.16 6.12 c-2.24 0 -4.2 -0.8 -4.68 -1.16 c-0.16 -0.12 -0.2 -0.28 -0.24 -0.52 l-0.52 -3.84 c0 -0.2 0.12 -0.28 0.28 -0.32 l0.72 -0.2 c0.12 -0.04 0.2 0 0.28 0.16 l1.6 2.36 c0.72 1.04 1.64 2.04 3.48 2.04 c1.48 0 2.36 -1.04 2.36 -2.44 c0 -1.6 -1.16 -2.12 -3.76 -2.92 c-2.84 -0.84 -4.88 -2.2 -4.88 -5.08 c0 -1.88 0.56 -3.44 2.08 -4.56 c1.6 -1.16 2.72 -1.44 4.4 -1.44 c2.16 0 3.48 0.48 4.2 0.84 c0.6 0.28 0.68 0.48 0.72 0.76 z"/>
  </g>
</svg>
